<svg xmlns="http://www.w3.org/2000/svg" xml:space="preserve" fill-rule="evenodd" stroke-linejoin="round" stroke-miterlimit="2" clip-rule="evenodd" viewBox="0 0 3481 3113">
  <g fill="#cd0000" fill-rule="nonzero">
    <path d="M2325.54 1777.144c51.734 6.413 90.634-65.525 81.271-110.622-4.818-23.205-26.13-49.522-36.006-74.036-8.129-20.181-31.461-68.837-56.498-74.94-17.55-4.278-59.286 25.335-71.517 36.714-25.706 23.914-25.583 47.018-31.537 82.638-7.345 43.957 1.8 55.566 30.587 93.217 21.634 28.294 27.845 32.299 60.651 33.464-3.746-.134 26.405 13.597 23.05 13.565Zm-11.805 124.357c8.89 56.585 58.016 103.125 72.437 48.77 34.435 31.847 84.973-12.406 95.741-46.86 6.58-21.052-10.205-64.312-17.81-83.015-8.323-20.474-33.934-40.496-36.158-60.917-64.07 16.607-43.7 22.724-67.78 32.716-16.21 6.726-57.38-1.018-67.723 22.806-6.789 15.64 18.342 67.711 21.293 86.5Zm48.049 664.009c-26.332-16.61-54.116-28.692-69.47-55.828-16.202-28.629-13.803-64.64-39.317-88.613-20.114-18.904-49.544-22.153-71.783-37.063-32.64-21.887-56.356-74.137-175.232-19.209-58.118 26.867-63.086 77.538-15.659 119.03 25.328 22.154 64.355 20.406 89.51 44.677 17.14 16.527 21.764 43.325 46.538 54.628 23.325 10.636 39.365 1.58 58.325 25.094 18.143 22.497 13.498 31.58 40.88 47.803 24.68 14.628 57.16 13.479 78.784 27.674 11.16 7.324 18.604 19.508 27.495 25.316-6.468-4.222 8.68-18.594 9.283-11.815-2.468 2.637-3.302 5.806-2.512 9.48 7.674 4.782 10.725-13.6 22.17-11.01 7.666 1.738 8.234 3.405 21.499 13.77 42.728 8.682 2.033-29.879-.765-35.525-20.682-41.721 46.702-66.476-19.746-108.409Zm-36.244-788.366c-.145-.018-.288-.028-.434-.047.182.03.327.046.434.047Zm1094.462 345.854c-12.19-24.561-25.765 3.75-32.982 5.753-17.919 5.007-8.473-39.526-9.373-41.067-7.838-13.363-110.98-41.562-82.268.491-17.356 3.311-33.025 11.006-43.34 22.962-1.196 1.393 8.317 9.354 4.506 10.267-4.685 1.123-39.53-24.477-41.915-26.844-9.998-9.921-15.541-23.44-32.117-28.693-9.903-3.141-25.897 3.01-31.982-1.395-.238-.17-37.906-72.316-40.087-75.536-2.25-3.324 5.22-15.961-.992-18.427-10.939-4.362-10.994 13.043-16.777 13.566-12.808 1.176-20.983-3.289-27.661 6.902-4.785 7.282 8.101 33.676-.6 39.973-12.48 8.99-57.856-36.144-71.993-33.059 10.496-2.288-25.823 34.55-23.678 27.567-2.746 8.96 8.883 56.471 15.903 54.789-31.505 7.55-75.254-70.304-117.513-28.012-17.357 17.37-13.122 53.822 4.432 67.749 9.092 7.214 52.739 4.101 46.422 35.627-3.095 15.453-23.295-16.006-28.947-18.363-25.123-10.477-17.696 7.014-10.163 20.025 9.844 17.003 51.011 18.817 11.703 44.54 2.668-1.746-27.026-53.366-43.274-42.003.902 4.42 1.81 8.838 2.723 13.255-10.164 10.844-16.346-14.49-17.768-14.86-3.195-6.416-7.813-11.581-13.856-15.496-8.529-.062-14.587 4.223-18.173 12.854-19.524 4.65-7.118 12.6-25.537 7.181 9.644 2.84-28.982-36.913-26.236-16.922.62 4.503 8.633 3.885 11.296 6.02-2.165 19.88-12.267 23.68-29.368 19.173-30.496-8.023-9.468-13.744-13.719-31.481-2.448-10.215-37.89 12.399-40.606 12.216-3.515-.248-3.452-12.58-3.513-15.202-78.148 15.321-221.705 153.096-175.351 215.42 24.292 32.658 26.986 4.651 49.169 10.864 53.972 15.153-12.254 77.097 74.641 109.796 170.848 64.285 118.227-16.776 176.686-26.348 24.708-4.058 54.584 6.962 78.325-1.273 15.178-5.274 30.104-16.67 41.681-20.989 18.364-6.87 42.47 1.214 25.582-31.508-10.004-19.388-35.606-12.555-44.472-27.55-2.399-4.06 7.805-78.03-16.805-27.863-27.473-13.247-21.495-29.102-.243-36.12 6.468-2.156 16.504 13.164 26.933.68 15.232-18.255-47.585-93.463-53.149-90.372 1.972-1.11 24.376-1.434 26.06-.065 7.808 6.355 3.366 26.206 22.57 32.709 15.502 5.253 9.748-21.456 26.455-8.659.105.08 23.47 46.991 23.513 47.83.433 8.334-6.653 17.35-7.031 25.727-.932 20.783-8.022 4.62 1.028 23.418 7.5 15.58-3.755 15.111 17.675 17.899 8.791-19.59 15.183-20.259 25.735-14.152 11.981-2.1 43.31 1.815 57.283 2.845 69.488 5.101 94.485 58.514 119.185 79.076 25.301 21.055 37.707 7.643 67.835 1.68 7.894-1.574 77.37-12.074 78.996-4.343 1.684 7.974-39.005 14.12-41.273 16.542 2.592 3.227 5.773 5.692 9.548 7.408 1.435 5.989-20.389.205-21.464 2.357-6.301 12.645-.702 6.743-2.708 17.147-8.04 41.863 18.066 19.94 39.565 42.892 2.016 2.152-24.143 6.346-24.985 6.185-13.344-2.453-24.839-21.59-43.091-17.216-4.084.979 1.561 5.883 7.061 9.489-8.45 2.737-20.155 15.844-18.78 26.635.368 2.927 41.345 17.134 19.011 31.031-5.907 3.673-17.21-26.357-32.859-15.607-1.823 1.24 13.296 25.007 15.262 30.05 28.218 72.352-78.608 72.275-36.018 106.866 6.378 5.183-28.506 9.317-30.21 12.134-5.916 9.766 6.363 15.231 10.008 27.341 3.478 11.605.089 24.961 4.044 36.346 1.77 5.105 10.98 9.655 11.666 14.414.523 3.571 5.81 15.015 2.193 22.109-3.708.646-7.601 2.291-10.644 4.641-10.158-4.519-14.065-35.17-15.724-41.333-5.347-20.034 7.432-15.325-9.271-28.38-17.63-13.759-10.016-9.993-18.481 4.686-13.249 22.976 5.348 33.882 15.467 51.576-.468-.813 2.594 21.633 2.831 22.243 2.517 6.518 9.972 11.518 12.433 20.458 18.94 68.468-10.938 100.384-16.909 145.6-.97 7.352-24.758-15.99-25.984-17.544-4.327-5.507-7.415-28.75-12.622-37.38-11-18.21-13.005 9.844-30.198-50.984-18.836-66.646-32.923-42.923-48.557-68.643-23.516-38.693 5.689-98.536-24.725-129.41-12.124-12.304-24.452-11.743-33.333-23.235-29.372-38.017-4.106-66.918-65.527-151.9-15.651-21.656-12.014-37.011-26.176 2.092-8.207 22.662 8.198 58.03-4.781 73.29-22.23 26.144-30.845-19.68-52.886-17.519-36.748 3.611-14.017 62.006-41.061 50.337-13.514-5.82-11.801-24.82-20.674-31.814-23.872-18.806-7.014-8.227-34.684 6.252-25.86 13.546-46.066 22.722-67.362 45.354 2.242 4.947 2.34 9.787.293 14.504a361.835 361.835 0 0 1-22.418 3.343c-30.653 32.39-20.29 33.648-33.756 48.677-2.497 2.796-28.23 18.19-28.416 15.764-1.16-15.16 20.933-39.892-5.73-33.335-13.072 3.224-34.827 37.829-34.88 50.583-.073 17.167 30.511 34.093 31.414 47.48.847 12.6-20.115 31.334-22.882 45.739-5.11 26.586 1.932 31.397 17.647 53.401 4.798 6.713 3.338 18.32 9.692 23.493 12.494 10.17 19.073-18.297 51.067 50.073 3.665 7.833 11.558 10.759 15.41 17.956 2.187 4.082-13.313 6.236-6.665 15.884 7.543 10.949 21.748 8.953 31.833 15.505 28.2 18.315 61.074 97.018 156.306 121.826 47.559 12.387 221.74-32.161 190.82-107.833 12.792-3.748 26.156.987 38.004-1.882 14.916-3.606 31.162-33.179 26.794-32.132 8.182-1.96 26.567 34.705 38.342 36.185 16.303 2.047 28.179-21.994 40.6-21.592 13.16.42 31.84 22.108 45.22 26.537 78.19 25.983 117.772-1.153 161.132-15.181 157.501-50.944 104.96-177.187 109.807-258.795 1.284-21.7-13.165-44.25-10.7-64.369 1.463-11.91 12.41-23.881 17.219-35.427 11.983-28.763 15.678-86.674 6.774-117.628-2.23-7.722-12.036-9.447-13.395-14.424-10.362-37.861-19.052-44.096-40.501-56.787-12.677-7.506-55.151-26.505-74.263-24.136a162.182 162.182 0 0 0 10.022-3.887c1.703-1.68-21.348-2.534-21.921-4.61-4.121-15.298 22.014-30.97 28.937-32.614 13.324-3.193 29.344 18.01 45.33-1.198 10.138-12.187-1.124-32.44 1.224-48.304 1.815-12.404 11.654-29.442 16.387-41.303 27.184-67.994 2.252-66.836-3.454-76.422-5.12-8.59-42.358-58.72-34.337-74.05 3.478-6.667 42.52 7.246 30.094-17.803Zm-563.33-638.475c19.19 26.906 4.295 28.16 13.318 60.372 8.136 29.082 28.425 36.743 22.857 69.138-3.783 22.08-10.893 33.248-8.243 55.432 8.16 68.435 37.235 42.21 45.377 46.218 19.72 9.71 27.495 61.876 85.438 19.184 6.785-5.003 5.67-15.216 12.192-18.349 13.858-6.654 42.85-.926 53.754-12.762 20.534-22.29-9.947-49.026-14.018-68.792-5.878-28.445 7.29-53.591-6.967-81.03-24.881-47.873-42.518-27.149-83.12-29.358-9.502-.518-23.083-10.09-29.962-9.778-7.853.357-29.08 15.713-34.105 13.392-23.047-10.637 24.557-24.532 26.524-24.86 49.669-8.251 113.908-1.725 19.594-209.211-39.89-87.74-251.807-70.08-153.624 115.034 14.316 26.987 33.055 50.243 50.985 75.37Zm378.558 146.543c7.252 24.257 6.044 30.784 33.57 40.388 20.452 7.14 26.063-2.383 47.4 1.056 20.883 3.377 21.704 24.12 40.324 24.566 51.452 2.79 29.988-278.235-99.149-252.185-33.744 6.807-59.858 35.08-57.632 70.35 1.142 18.167 39.536 88.598 40.372 90.065a159.148 159.148 0 0 1-4.886 25.76Zm-166.243 123.194c-28.85-19.297-47.295-8.073-79.304 6.475-54.579 24.81-58.797 55.185-47.451 111.251 19.966 98.667 30.972 65.952 43.899 93.719 2.572 5.55-14.364 18.577 3.111 18.798 11.421-17.645 27.054-2.863 47.836-10.147 14.956-5.236.675-10.964 14.963-16.585 14.452-5.69 17.948-2.483 33.453-5.366 68.808-12.78-14.75-73.303-13.706-117.239 58.169 4.397 25.131-62.21-2.801-80.905Zm273.768-30.31c-47.954.236-30.933-18-54.454-11.46-72.805 20.25-27.358 118.849-24.14 130.194 2.35 8.285 12.708-2.29 12.185 10.51-.546 13.397-14.102 12.589-19.626 20.768-32.892 48.606-21.255 139.006 30.542 149.938 1.836.393 15.685-13.698 16.574-12.896 11.353 10.202 15.345 23.76 33.81 23.621 17.3-.131 79.366-42.246 43.032-53.324 49.832-47.713 35.77-138.372 17.595-195.557-13.888-43.66-9.622-62.02-55.518-61.794Z"/>
    <path d="M3199.671 2689.24c-.015.064-.015.064 0 0Zm-545.24-898.048c-33.502 52.336-.593 58.007 6.192 86.47 3.657 15.337.769 19.868 2.049 34.868 3.796 44.468 25.174 49.7 43.339 83.963 20.23 38.166 23.621 50.851 77.044 48.759 53.11-3.745 106.7-30.967 86.25-85.249-2.433-6.458-13.524-6.755-16.878-19.927-2.38-9.34 12.764-20.34 10.357-33.115-1.94-10.292-47.025-47.317-39.39-54.596 16.621-15.846 46.586 7.577 31.692-27.436-2.201-5.177-28.319-30.114-32.75-33.691-16.804-13.565-23.464-8.887-31.314-24.042-6.503-12.558 8.222-28.776-5.39-43.61-29.505-32.152-94.941 10.965-131.2 67.606Zm-202.324 193.658c-4.121 3.178-15.191-1.841-19.825-1.047-27.695 4.74-34.42-9.737-34.876 24.637-.065 4.935 8.074 10.36 8.74 15.304 1.105 8.2-11.511 13.815-10.294 19.262 3.392 15.148 22 29.558 28.16 45.536 14.53 37.688-12.928 48.556 26.455 74.084 22.211 23.31 46.874-5.25 61.076-14.199 13.847-8.712 56.766-20.71 66-34.468-1.347 2.005 12.133-45.995 12.372-43.885-1.715-15.103-18.765-22.57-29.445-32.5-30.94-28.77-1.041-41.129-42.62-63.338-91.689-48.977-56.225 3.278-65.743 10.615Z"/>
    <path d="M2535.94 1553.809c6.175.992 30.97-10.16 30.952-10.235 1.491 6.22-14.537 27.59-15.63 37.26-2.529 22.348 15.786 54.79 19.215 68.672 1.002 4.055-7.818 11.147-6.504 15.747 6.344 22.194 55.235 88.496 75.58 92.09 18.16 3.113 16.795-9.42 28.088-15.76 68.387-38.37 104.502-34.858 69.286-106.043-15.61-31.55-9.366-65.634-31.304-103.072-46.172-78.79-66.383-27.868-84.247-41.247-2.005-1.502 27.72-47.5 29.825-60.606 10.93-68.04-39.802-130.3-66.193-133.845-13.748-1.845-51.175 14.91-65.737 19.64-117.54 38.167-14.655 232.363 16.669 237.399ZM122.072 861.796c18.22-2.988 19.853-17.022 29.316-29.006.736-.93 16.77 10.602 18.517 9.91 7.511-2.98 13.374-8.759 19.23-14.125 12.155-11.142 11.676-17.666 14.216-32.803 13.553-80.803-50.098-116.024-51.615-123.162-3.106-14.618 11.708-2.708 14.002-14.722 16.141-84.495-21.864-124.946-52.801-124.418-21.521.366-12.301 14.327-17.08 16.6-10.678 5.077-24.638 3.858-36.988 6.288-43.874 8.63-33.176 39.986-39.52 80.466-8.677 55.36-2.007 144.496 51.268 179.714-36.516 21.757 37.753 44.347 51.455 45.258Zm366.174-66.381c.017-.111 0-.257-.058-.445.035.107.051.259.058.445Zm543.377-35.286c3.185-15.918 20.573-31.563 21.916-47.432.537-6.333-14.437-8.984-14.46-16.25-.02-6.345 6.25-14.065 5.191-19.77-2.24-12.062 7.075-12.896-6.668-22.76-16.695-11.981-14.259 4.283-27.718 3.86-6.07-.191-18.242 7.729-23.52 4.922-4.477-2.38.672-22.479-3.513-24.636-23.318-12.024-37.328 6.8-56.457 21.074-41.293 30.81-15.124 30.942-30.896 64.419-7.228 15.345-29.583 26.549-31.3 43.236-.856 8.325 14.46 14.975 17.634 20.692 4.013 7.23-2.563 18.1 2.783 23.711 11.012 11.56 56.289 16.786 70.886 22.785 15.518 6.377 44.652 30.391 62.598 3.645 34.486-31.83 5.596-37.89 13.524-77.496Z"/>
    <path d="M794.82 849.566c.385 2.594 2.535 14.734-.885 15.564-2.647.642-41.406-15.633-42.089-5.155-1.21 18.205 20.529 20.273-8.188 33.36-16.092 7.333-26.69 5.305-32.193-13.928 2.369-1.863 10.228-4.4 10.112-7.837-.652-19.286-34.405 28.859-24.388 25.786-16.959 5.203-18.46-12.191-30.894-12.13-20.295.1-7.838 2.758-25.208 12.733-1.495.858-3.156 26.623-14.994 17.668.151-4.51.297-9.02.437-13.533-17.94-8.44-38.457 47.46-35.533 48.726-5.157-2.234-23.429-19.006-19.972-26.518 1.536-3.337 40.937-14.332 29.988-37.37-14.005-29.477-38.109 40.517-44.855 23.013-11.009-28.562 32.531-34.9 39.714-42.979 14.464-16.268 12.675-55.1-8.343-67.838-49.159-29.794-77.107 49.96-109.832 47.83-2.081-.137 10.759-45.566 10.545-51.54-.494 3.36-33.27-26.453-28.337-25.415-19.206-4.041-53.802 49.4-69.179 41.882-9.65-4.718-1.424-32.92-7.368-39.29-8.311-8.906-15.614-3.132-28.43-2.109-5.784.463-8.792-16.682-18.83-10.535-5.703 3.492 3.8 14.67 2.141 18.33-1.61 3.55-26.502 81.025-26.71 81.239-5.254 5.381-22.06 2.022-31.289 6.797-15.435 7.989-18.609 22.245-26.79 33.714-1.95 2.735-31.944 33.878-36.756 33.564-3.918-.256 4.12-9.71 2.7-10.88-12.192-10.045-28.93-14.963-46.61-15.292 21.176-46.306-75.7-1.04-81.158 13.46-.626 1.664 16.24 43.952-2.275 42.064-7.458-.76-25.624-26.361-33.475-.087-8.01 26.793 28.118 6.466 32.68 12.445 13.695 17.94-31.914 94.837-32.527 101.271-3.163 33.187 36.428 68.446 43.927 91.352 4.99 15.247-2.667 37.107 9.388 47.399 19.012 16.227 31.202-7.386 44.867-6.503 7.113.46 35.517 11.473 34.044 27.252-.199 2.13-22.776 6.888-20.81 8.249 3.486.83 6.996 1.532 10.525 2.127-19.227.908-57.864 26.84-69.086 36.377-18.995 16.14-26.505 23.761-30.297 62.835-.498 5.134-9.875 8.493-10.757 16.482-3.536 32.018 9.916 88.455 26.597 114.772 6.7 10.575 19.516 20.502 22.978 32.005 5.842 19.415-4.586 44.064.368 65.254 18.611 79.622-11.797 212.898 152.076 236.45 45.09 6.464 88.714 26.49 161.368-12.36 12.429-6.63 27.158-31.173 40.065-33.811 12.17-2.508 27.949 19.177 43.67 14.395 11.358-3.45 23.256-42.707 31.656-42.16-6.271-.375 15.38 27.538 28.106 29.094 12.342 1.511 27.118-8.53 41.52-6.542-17.651 79.814 161.561 94.205 206.33 73.931 89.66-40.578 108.713-123.712 133.404-146.553 8.828-8.16 23.168-8.598 28.746-20.66 4.915-10.632-10.726-10.126-9.262-14.537 2.578-7.738 9.86-11.953 12.146-20.303 19.946-72.804 31.254-45.85 41.842-58.008 5.388-6.17 1.98-17.352 5.571-24.788 11.76-24.347 17.884-30.284 8.345-55.616-5.17-13.73-29.002-28.637-30.302-41.203-1.38-13.35 25.892-35.218 22.912-52.123-2.211-12.544-29.518-42.981-42.944-43.93-27.389-1.95-1.423 18.688 0 33.815 1.163 12.326-66.199-47.416-63.722-45.995-3.402-1.957-17.664-6.356-17.958-6.589-8.52 4.058-13.618 2.613-15.28-4.306 2.394-8.013-.317-13.741-8.131-17.186-9.367-6.951-17.906-12.813-28.736-17.277a91.527 91.527 0 0 1-28.312-.805 201.248 201.248 0 0 1-19.568-18.702c-44.421-6.519-12.758 50.978-46.614 50.062-18.558-.49-7.584-58.328-49.11-47.36-18.545 4.899-20.768 57.578-48.105 21.331-14.795-19.619 7.91-52.89-16.159-76.068-23.482-22.615-16.512-1.928-28.876 26.246-25.251 57.532-12.975 118.038-29.335 153.017-3.986 8.53-23.762 11.876-30.604 22-24.608 36.38 14.158 89.658-2.436 131.723-5.428 13.739-20.993 21.12-27.988 34.402-12.497 23.705-4.266 57.744-15.274 80.456-2.858 5.897-11.364 9.42-14.087 16.39-3.668 9.379-2.773 32.813-6.11 38.961-.942 1.756-20.43 28.788-22.633 21.71-9.022-29.03-34.318-54.42-40.204-82.173-14.509-68.394 44.85-186.005-2.626-162.567-19.056 9.4-.398 81.92-20.839 78.412-13.415-2.3-7.93-21.264-8.047-25.902-.122-4.804 8.178-10.854 9.056-16.2 1.96-11.878-3.63-24.476-2.165-36.493 1.525-12.56 12.713-20.015 5.228-28.644-2.157-2.483-37.242-.65-31.835-6.838 36.113-41.304-69.158-23.134-53.6-99.22 1.087-5.305 11.95-31.285 9.956-32.2-17.255-7.94-23.306 23.568-29.747 20.946-24.36-9.918 13.616-30.852 13.483-33.805-.481-10.862-14.239-21.798-23.027-23.066 4.804-4.478 9.545-10.272 5.358-10.542-15.349-.999-51.416 40.614-65.224 23.8-2.326-2.833 24.249-12.909 26.698-15.682 15.327-17.357 11.9-9.292 6.994-31.266-1.955-8.76 3.332-11.453-2.795-18.109-3.075-3.34-26.563 3.535-26.305-.44a25.853 25.853 0 0 0 8.162-8.916c-2.658-1.999-43.788-1.168-43.486-9.314.47-12.66 125.59-2.687 142.254-18.88 20.437-19.86 27.558-50.105 49.717-69.413 39.797-34.678 103.687-44.21 112.729-44.575-2.214.166 29.38 2.126 22.955 2.889 11.436-1.361 9.829 9.1 21.663-4.335 3.837-4.357 3.574-23.174 2.665-26.689-7.394-28.564-27.512-31.839-4.402-68.354-3.1-9.509-.935-16.31 6.495-20.401a88.748 88.748 0 0 0 21.634 11.342c19.658-7.696 10.2-28.618 16.701-36.064 1.428-1.634 23.561-5.109 25.695-4.362-6.01-2.104-55.172 82.677-37.067 98.076 12.392 10.544 19.688-6.253 26.43-5.239 22.131 3.33 30.711 17.94 5.88 35.65-32.548-44.987-10.315 25.857-11.842 30.302-5.447 15.864-32.888 14.725-39.162 34.688-11.721 37.303 16.152 22.063 34.954 24.804 14.788 2.157 33.063 16.408 52.07 17.43 22.473 1.207 55.268-21.317 76.944-17.805 42.569 6.898 13.576 89.988 167.223-.074 79.754-46.75 4.658-96.87 54.958-120.848 19.224-9.164 30.328 12.134 46.617-19.043 34.503-66.03-129.251-180.733-209.31-182.592Z"/>
    <path d="M396.2 1756.317a2.605 2.605 0 0 0-.013.23c.016-.292.06-.984.013-.23ZM356.643 738.045c15.765.21 18.664-3.537 33.878-.38 15.025 3.119 1.93 11.184 17.553 13.813 21.717 3.658 34.624-13.567 48.869 1.885 17.18-3.175-1.726-13.146-.12-19.052 8.025-29.553 24.423.829 27.384-99.799 1.682-57.178-7.624-86.4-65.621-101.602-34.012-8.915-54.095-16.852-79.247 7.056-24.361 23.158-45.636 94.4 10.948 80.212 8.473 43.127-63.632 116.934 6.356 117.867Zm336.3-290.252c13.228 3.181 25.731 3.681 37.633 8.157 13.51 5.076 12.007 21.544 32.501 14.291 19.44-6.989 56.392-80.616 58.883-103.566.517-4.753-9.379-10.25-9.079-14.416 1.027-14.263 13.58-49.338 7.303-70.935-2.717-9.344-22.135-27.69-21.72-34.072-.004.077 26.323 6.867 32.24 4.843 30.016-10.27 98.51-219.092-23.797-236.793-15.153-2.192-54.877-12.367-68.116-8.217-25.408 7.964-64.857 77.922-42.558 143.126 4.295 12.561 41.384 52.854 39.662 54.676-7.999 8.454-46.177-24.503-76.04 54.926-31.589 84.028-2.377 72.753-3.092 88.07-.473 10.27-62.551 76.166 36.18 99.91ZM943.19 587.486c16.45 32.131 73.755 67.18 102.298 29.959 19.787 46.213 64.05 3.608 63.124-60.34-.275-19.018 15.667-74.595 6.327-88.856-14.229-21.727-53.493-7.12-70.607-11.001-25.427-5.767-6.387-15.247-72.344-20.76 1.271 20.502-20.579 44.577-25.313 66.163-4.326 19.723-13.536 65.2-3.485 84.835Zm133.133-151.059c-.14.045-.282.079-.422.121a3.07 3.07 0 0 0 .422-.12Z"/>
    <path d="M1075.9 436.548c-3.28.588 24.092-18.04 20.422-17.273 30.154-6.292 31.884-2.95 49.496-33.74 17.328-30.292 34.11-57.604 26.39-91.748-5.35-23.66-21.377-72.686-39.76-87.598-12.807-10.388-67.882-30.494-84.245-26.04-25.029 6.816-39.626 48.099-46.948 73.318-7.15 24.639-22.72 60.7-25.103 84.239-4.787 47.335 50.603 113.663 99.749 98.842ZM570.99 708.901c-17.27 89.769 137.751 82.097 162.28 41.057 7.913-13.241.786-29.96 6.173-43.727 5.22-13.341 21.331-20.93 26.966-34.653 7.198-17.539-.147-34.084-1.936-51.308-2.815-27.11 9.791-43.858 13.6-67.837 7.96-50.132-139.524-148.532-166.77-85.894-6.128 14.087 7.706 27.858 4.168 39.082-4.565 14.476-13.582 14.015-26.787 29.001-3.747 4.252-25.28 33.296-26.567 38.752-8.882 37.663 15.84 8.213 35.883 21.668 8.757 5.88-29.403 50.008-29.57 60.48-.209 12.998 16.579 21.273 15.817 30.881-1.072 13.55-11.954 15.721-13.258 22.498ZM99.853 806.289l-.02.314c-.069 1.042.034-.528.02-.314Zm1311.666 147.082c-50.177 1.942-58.173 26.165-90.543 56.803-17.056 16.143-41.526 23.46-57.95 40.557-25.967 27.032-19.349 62.287-28.346 95.743-13.948 51.823-96.69 70.366-80.105 120.795 6.047 18.382 26.086 36.91 18.107 62.578-1.886 6.058-35.313 50.914 5.264 35.13 11.318-12.455 11.596-14.203 18.855-17.216 10.842-4.492 16.963 13.115 23.716 7.103.156-3.764-1.206-6.74-4.083-8.914-.562-6.88 16.847 4.916 11.149 10.069 4.865-4.393 10.98-15.767 15.748-19.515 39.915-31.489 81.207-27.796 107.789-88.419 11.01-25.106 15.802-28.8 39.47-43.063 33.665-20.264 30.11-30.775 50.5-63.401 15.914-25.463 44.78-30.942 66.974-46.821 51.475-36.835 81.74-148.328-96.545-141.429ZM373.715 495.761c6.96 1.983 7.58 12.235 15.124 16.019 64.338 32.259 63.157-20.473 80.951-33.382 7.348-5.33 40.434 15.589 36.892-53.239-1.15-22.312-10.044-32.114-17.523-53.234-10.972-30.982 7.722-41.971 10.817-72.01 3.428-33.277-11.463-31.99 2.898-61.756 13.412-27.801 27.935-53.898 37.468-82.918C605.741-43.832 393.891-25.33 369.452 67.9c-57.79 220.467 4.406 203.149 54.76 202.866 1.993-.011 51.258 5.618 30.351 20.005-4.562 3.138-28.086-8.4-35.88-7.42-6.826.857-18.596 12.592-27.875 14.711-39.637 9.056-60.533-8.38-76.934 43.017-9.402 29.458 7.827 52.008 6.86 81.039-.672 20.17-26.179 51.685-2.16 70.173 12.757 9.817 40.359-.742 55.14 3.47ZM46.269 532.332c18.832-3.707 10.726-21.74 26.847-28.745 15.753-6.843 32.016 1.044 47.254-4.849 54.015-20.888 28.096-71.227 30.47-92.97 2.475-22.664 16.628-42.678 19.069-64.505 8.252-73.765-134.404-147.534-168.617 64.72-4.758 29.52 7.133 40.471 12.49 68.559 4.113 21.554-6.22 66.624 32.487 57.79Z"/>
  </g>
</svg>
